<svg width="24" height="24" viewBox="0 0 24 24" fill="none" xmlns="http://www.w3.org/2000/svg">
<rect width="24" height="24" rx="12" fill="#15803D"/>
<path d="M9.95312 7.75C9.95312 8.12109 10.0391 8.45508 10.2109 8.75195C10.3828 9.04492 10.6133 9.29102 10.9023 9.49023C11.1914 9.68945 11.5234 9.87305 11.8984 10.041C12.2734 10.209 12.668 10.3691 13.082 10.5215C13.4961 10.6699 13.9102 10.8262 14.3242 10.9902C14.7383 11.1504 15.1328 11.3438 15.5078 11.5703C15.8828 11.793 16.2148 12.0449 16.5039 12.3262C16.793 12.6035 17.0234 12.9531 17.1953 13.375C17.3672 13.793 17.4531 14.2617 17.4531 14.7812C17.4531 15.418 17.3125 16.0117 17.0312 16.5625C16.75 17.1133 16.3633 17.5859 15.8711 17.9805C15.3828 18.3711 14.7891 18.6777 14.0898 18.9004C13.3906 19.123 12.6367 19.2344 11.8281 19.2344C11.5156 19.2344 11.1855 19.2129 10.8379 19.1699C10.4941 19.1309 10.1289 19.0625 9.74219 18.9648C9.35938 18.8672 8.99023 18.748 8.63477 18.6074C8.2793 18.4668 7.9375 18.2891 7.60938 18.0742C7.28516 17.8555 7.00195 17.6133 6.75977 17.3477C6.51758 17.082 6.32422 16.7695 6.17969 16.4102C6.03906 16.0469 5.96875 15.6602 5.96875 15.25C5.96875 14.7305 6.15039 14.2891 6.51367 13.9258C6.88086 13.5586 7.32422 13.375 7.84375 13.375C8.36328 13.375 8.80469 13.5586 9.16797 13.9258C9.53516 14.2891 9.71875 14.7305 9.71875 15.25C9.71875 15.5859 9.63672 15.8965 9.47266 16.1816C9.3125 16.4629 9.09375 16.6875 8.81641 16.8555C9.40234 17.1914 10.1719 17.3594 11.125 17.3594C11.9727 17.3594 12.6133 17.2285 13.0469 16.9668C13.4844 16.7051 13.7031 16.2891 13.7031 15.7188C13.7031 15.3477 13.6172 15.0156 13.4453 14.7227C13.2734 14.4258 13.043 14.1777 12.7539 13.9785C12.4648 13.7793 12.1328 13.5957 11.7578 13.4277C11.3828 13.2598 10.9883 13.1016 10.5742 12.9531C10.1602 12.8008 9.74609 12.6445 9.33203 12.4844C8.91797 12.3203 8.52344 12.127 8.14844 11.9043C7.77344 11.6777 7.44141 11.4258 7.15234 11.1484C6.86328 10.8672 6.63281 10.5176 6.46094 10.0996C6.28906 9.67773 6.20312 9.20703 6.20312 8.6875C6.20312 8.04688 6.33008 7.45312 6.58398 6.90625C6.8418 6.35547 7.20117 5.88477 7.66211 5.49414C8.12695 5.09961 8.69727 4.79102 9.37305 4.56836C10.0488 4.3457 10.7891 4.23438 11.5938 4.23438C11.9062 4.23438 12.2305 4.25586 12.5664 4.29883C12.9062 4.33789 13.2598 4.40625 13.627 4.50391C13.998 4.60156 14.3535 4.7207 14.6934 4.86133C15.0332 5.00195 15.3574 5.18164 15.666 5.40039C15.9785 5.61523 16.248 5.85547 16.4746 6.12109C16.7012 6.38672 16.8809 6.69922 17.0137 7.05859C17.1504 7.41797 17.2188 7.80469 17.2188 8.21875C17.2188 8.73828 17.0352 9.18164 16.668 9.54883C16.3047 9.91211 15.8633 10.0938 15.3438 10.0938C14.8242 10.0938 14.3809 9.91211 14.0137 9.54883C13.6504 9.18164 13.4688 8.73828 13.4688 8.21875C13.4688 7.87109 13.5566 7.55273 13.7324 7.26367C13.9082 6.9707 14.1406 6.74219 14.4297 6.57812C13.9102 6.26562 13.1992 6.10938 12.2969 6.10938C11.4727 6.10938 10.875 6.23828 10.5039 6.49609C10.1367 6.75 9.95312 7.16797 9.95312 7.75Z" fill="white"/>
</svg>
